<svg width="24" height="24" viewBox="0 0 24 24" fill="none" xmlns="http://www.w3.org/2000/svg">
<g id="edit-2">
<path id="&#240;&#159;&#142;&#168; Icon &#208;&#161;olor" fill-rule="evenodd" clip-rule="evenodd" d="M4.293 17.6857C4.083 17.4757 3.978 17.1837 4.004 16.8877L4.383 12.7177C4.425 12.2607 4.627 11.8297 4.953 11.5037L13.949 2.5077C14.651 1.8027 15.924 1.8377 16.665 2.5767L19.403 5.3147L19.404 5.3157C20.169 6.0817 20.2 7.2997 19.472 8.0297L10.475 17.0267C10.15 17.3517 9.719 17.5537 9.261 17.5957L5.091 17.9747C5.061 17.9767 5.031 17.9777 5 17.9777C4.737 17.9777 4.482 17.8737 4.293 17.6857ZM16.019 8.6567L13.324 5.9617L15.272 4.0127L17.966 6.7067L16.019 8.6567ZM9.08 15.6027L6.103 15.8737L6.367 12.9177L11.984 7.3007L14.68 9.9977L9.08 15.6027ZM19 21.9777C19.55 21.9777 20 21.5277 20 20.9777C20 20.4287 19.55 19.9777 19 19.9777H5C4.451 19.9777 4 20.4287 4 20.9777C4 21.5277 4.451 21.9777 5 21.9777H19Z" fill="#FF993A"/>
</g>
</svg>
